# xmcd
#
# Track frame offsets:
#	150
#	2067
#	33961
#	101228
#	141106
#	168713
#	191324
#	226171
#	248344
#	294843
#	311260
#
# Disc length: 4509 seconds
#
# Revision: 1
# Processed by: cddbd v1.5.2PL0 Copyright (c) Steve Scherf et al.
# Submitted via: audiograbber 1.83.01
#
DISCID=81119b0b
DTITLE=Grateful Dead - 78-04-18A Pittsburgh Civic Arena, Pittsburgh PA
DYEAR=1900
DGENRE=
TTITLE0=Crowd - Tuning
TTITLE1=New Minglewood Blues
TTITLE2=Sugaree
TTITLE3=Looks Like Rain
TTITLE4=Dire Wolf
TTITLE5=Beat It On Down The Line
TTITLE6=Loser
TTITLE7=El Paso
TTITLE8=Tennessee Jed
TTITLE9=Lazy Lightning
TTITLE10=Supplication
EXTD=
EXTT0=
EXTT1=
EXTT2=
EXTT3=
EXTT4=
EXTT5=
EXTT6=
EXTT7=
EXTT8=
EXTT9=
EXTT10=
PLAYORDER=
